<svg width="147" height="35" viewBox="0 0 147 35" fill="none" xmlns="http://www.w3.org/2000/svg">
<rect y="0.173584" width="146.333" height="31.5449" rx="2.33666" fill="#00035C"/>
<path d="M63.4888 26.6248H60.5855C60.3532 26.6248 60.1597 26.4355 60.1597 26.1961V6.70146C60.1597 6.4676 60.3477 6.27271 60.5855 6.27271H63.4888C63.721 6.27271 63.9146 6.46203 63.9146 6.70146V26.1961C63.9146 26.4299 63.7266 26.6248 63.4888 26.6248ZM74.2282 17.9049H64.0473C63.8151 17.9049 63.6215 17.7156 63.6215 17.4761V15.104C63.6215 14.8702 63.8095 14.6753 64.0473 14.6753H74.2282C74.4605 14.6753 74.654 14.8646 74.654 15.104V17.4761C74.654 17.71 74.466 17.9049 74.2282 17.9049ZM76.2246 6.27827C77.2532 6.27827 78.0882 7.11909 78.0882 8.15479V24.7539C78.0882 25.7896 77.2532 26.6304 76.2246 26.6304C75.196 26.6304 74.3609 25.7896 74.3609 24.7539V8.14922C74.3609 7.11352 75.196 6.27271 76.2246 6.27271V6.27827Z" fill="white"/>
<path d="M86.1013 23.4231H95.696C96.1937 23.4231 96.603 23.8295 96.603 24.3363V25.7116C96.603 26.2128 96.1993 26.6248 95.696 26.6248H82.3464C81.8487 26.6248 81.4395 26.2183 81.4395 25.7116V7.18591C81.4395 6.68476 81.8431 6.27271 82.3464 6.27271H95.2923C95.79 6.27271 96.1993 6.67919 96.1993 7.18591V8.56128C96.1993 9.06242 95.7956 9.47448 95.2923 9.47448H86.1013C85.6036 9.47448 85.1944 9.88096 85.1944 10.3877V22.521C85.1944 23.0221 85.5981 23.4342 86.1013 23.4342V23.4231ZM85.8138 14.731H94.0536C94.5513 14.731 94.9605 15.1374 94.9605 15.6442V16.9304C94.9605 17.4316 94.5568 17.8436 94.0536 17.8436H85.8138C85.316 17.8436 84.9068 17.4371 84.9068 16.9304V15.6442C84.9068 15.143 85.3105 14.731 85.8138 14.731Z" fill="white"/>
<path d="M99.3682 26.1128V6.78528C99.3682 6.5013 99.5949 6.27856 99.8714 6.27856H107.68C109.472 6.27856 111.003 6.56255 112.286 7.13608C113.564 7.70962 114.554 8.53373 115.245 9.61954C115.936 10.7054 116.285 12.0028 116.285 13.5174C116.285 15.0319 115.936 16.2904 115.245 17.3539C114.554 18.4175 113.564 19.2416 112.286 19.8262C111.009 20.4053 109.472 20.7005 107.68 20.7005H102.631C102.2 20.7005 101.984 20.177 102.283 19.8652C102.587 19.5534 103.118 19.7705 103.118 20.2104V26.1184C103.118 26.4024 102.891 26.6251 102.614 26.6251H99.8714C99.5894 26.6251 99.3682 26.3968 99.3682 26.1184V26.1128ZM102.238 18.4342C101.945 18.1056 102.177 17.5822 102.614 17.5822H107.508C109.162 17.5822 110.412 17.2258 111.247 16.5075C112.082 15.7892 112.502 14.7925 112.502 13.5118C112.502 12.2311 112.082 11.2399 111.247 10.5327C110.412 9.82557 109.162 9.4692 107.508 9.4692H102.603C102.166 9.4692 101.934 8.95135 102.227 8.62282L102.238 8.61168C102.548 8.26088 103.123 8.48361 103.123 8.95135V18.0945C103.123 18.5622 102.553 18.7794 102.244 18.4342H102.238ZM112.436 26.408L108.028 20.0434C107.796 19.7037 108.034 19.2416 108.443 19.2416H111.225C111.391 19.2416 111.545 19.3251 111.639 19.4587L116.069 25.8233C116.301 26.163 116.069 26.6251 115.654 26.6251H112.851C112.685 26.6251 112.53 26.5416 112.436 26.408Z" fill="white"/>
<path d="M129.468 26.9146C127.909 26.9146 126.46 26.6529 125.121 26.1295C123.783 25.6061 122.622 24.8711 121.643 23.9189C120.659 22.9723 119.901 21.8586 119.365 20.589C118.828 19.3195 118.557 17.9385 118.557 16.4462C118.557 14.9539 118.828 13.5451 119.365 12.2756C119.901 11.006 120.664 9.90348 121.643 8.96244C122.627 8.02139 123.778 7.29195 125.11 6.76853C126.438 6.24511 127.892 5.9834 129.468 5.9834C131.044 5.9834 132.471 6.23954 133.798 6.75182C135.125 7.26411 136.276 7.99355 137.249 8.9346C138.222 9.87564 138.974 10.9837 139.516 12.2644C140.053 13.5451 140.324 14.9372 140.324 16.4518C140.324 17.9664 140.053 19.3529 139.516 20.6225C138.98 21.892 138.222 23.0001 137.249 23.9523C136.276 24.9045 135.125 25.6339 133.798 26.1462C132.471 26.6585 131.027 26.9146 129.468 26.9146ZM129.468 23.6015C130.486 23.6015 131.426 23.4289 132.283 23.0781C133.14 22.7273 133.887 22.2373 134.523 21.5969C135.158 20.9565 135.651 20.1993 136.01 19.3306C136.364 18.4564 136.547 17.4986 136.547 16.4518C136.547 15.405 136.375 14.4472 136.027 13.573C135.678 12.6988 135.186 11.947 134.539 11.3067C133.892 10.6663 133.146 10.1708 132.288 9.82552C131.431 9.47472 130.491 9.3021 129.474 9.3021C128.456 9.3021 127.505 9.47472 126.631 9.82552C125.757 10.1763 125 10.6719 124.364 11.3234C123.728 11.9749 123.23 12.7266 122.865 13.5897C122.5 14.4528 122.318 15.405 122.318 16.4518C122.318 17.4986 122.5 18.4285 122.865 19.3028C123.23 20.177 123.733 20.9343 124.364 21.5858C125 22.2373 125.752 22.7328 126.631 23.0836C127.505 23.4344 128.456 23.6071 129.474 23.6071L129.468 23.6015Z" fill="white"/>
<path d="M16.9165 26.8867C14.1681 26.8867 12.0113 26.1015 10.4463 24.5369C8.8813 22.9722 8.10156 20.7003 8.10156 17.7213V7.21389C8.10156 6.7016 8.51079 6.28955 9.01956 6.28955H10.933C11.4362 6.28955 11.851 6.7016 11.851 7.21389V17.6043C11.851 19.6924 12.2989 21.2126 13.1892 22.1592C14.0851 23.1058 15.346 23.5791 16.9774 23.5791C18.6087 23.5791 19.8696 23.1058 20.7489 22.1592C21.6337 21.2126 22.0761 19.6924 22.0761 17.6043V7.21389C22.0761 6.70717 22.4853 6.28955 22.9941 6.28955H24.8522C25.3554 6.28955 25.7702 6.7016 25.7702 7.21389V17.7213C25.7702 20.7003 24.9849 22.9722 23.4199 24.5369C21.8549 26.1015 19.6871 26.8867 16.9221 26.8867H16.9165Z" fill="white"/>
<path d="M29.647 25.7563V7.13036C29.647 6.6682 30.023 6.28955 30.482 6.28955H32.5558C33.0148 6.28955 33.3908 6.6682 33.3908 7.13036V25.7563C33.3908 26.2185 33.0148 26.5971 32.5558 26.5971H30.482C30.023 26.5971 29.647 26.2185 29.647 25.7563Z" fill="white"/>
<path d="M59.85 34.8993H60.9228C61.8408 34.8993 62.3606 33.8358 61.8021 33.1008L39.914 6.70703C39.7038 6.43419 39.3776 6.27271 39.0347 6.27271H37.9619C37.0439 6.27271 36.524 7.33625 37.0826 8.07126L58.9707 34.465C59.1808 34.7378 59.5071 34.8993 59.85 34.8993Z" fill="white"/>
<path d="M38.9078 26.586H38.1557C37.0497 26.586 36.4857 25.2496 37.2543 24.4478L54.2981 6.67376C54.5359 6.42876 54.8621 6.28955 55.1995 6.28955H55.9516C57.0576 6.28955 57.6217 7.62594 56.853 8.42778L39.8148 26.1962C39.577 26.4412 39.2507 26.5804 38.9134 26.5804L38.9078 26.586Z" fill="white"/>
</svg>
