<svg width="202" height="48" viewBox="0 0 202 48" fill="none" xmlns="http://www.w3.org/2000/svg">
<rect width="202" height="43.5449" rx="3.22555" fill="url(#paint0_linear_179_1412)"/>
<path d="M87.6414 36.5137H83.6337C83.3131 36.5137 83.0459 36.2524 83.0459 35.9219V9.01133C83.0459 8.68849 83.3054 8.41946 83.6337 8.41946H87.6414C87.9621 8.41946 88.2292 8.68081 88.2292 9.01133V35.9219C88.2292 36.2447 87.9697 36.5137 87.6414 36.5137ZM102.466 24.4766H88.4125C88.0918 24.4766 87.8246 24.2153 87.8246 23.8848V20.6103C87.8246 20.2875 88.0842 20.0184 88.4125 20.0184H102.466C102.787 20.0184 103.054 20.2798 103.054 20.6103V23.8848C103.054 24.2076 102.795 24.4766 102.466 24.4766ZM105.222 8.42715C106.642 8.42715 107.795 9.58782 107.795 11.0175V33.9311C107.795 35.3608 106.642 36.5214 105.222 36.5214C103.802 36.5214 102.649 35.3608 102.649 33.9311V11.0098C102.649 9.58013 103.802 8.41946 105.222 8.41946V8.42715Z" fill="white"/>
<path d="M118.856 32.094H132.101C132.788 32.094 133.353 32.6551 133.353 33.3546V35.2532C133.353 35.9449 132.795 36.5137 132.101 36.5137H113.673C112.986 36.5137 112.421 35.9526 112.421 35.2532V9.68006C112.421 8.98827 112.978 8.41946 113.673 8.41946H131.544C132.231 8.41946 132.795 8.98058 132.795 9.68006V11.5786C132.795 12.2704 132.238 12.8392 131.544 12.8392H118.856C118.169 12.8392 117.604 13.4003 117.604 14.0998V30.8488C117.604 31.5406 118.162 32.1094 118.856 32.1094V32.094ZM118.459 20.0953H129.834C130.521 20.0953 131.086 20.6564 131.086 21.3559V23.1315C131.086 23.8233 130.528 24.3921 129.834 24.3921H118.459C117.772 24.3921 117.207 23.831 117.207 23.1315V21.3559C117.207 20.6641 117.765 20.0953 118.459 20.0953Z" fill="white"/>
<path d="M137.169 35.8066V9.12663C137.169 8.73462 137.482 8.42715 137.864 8.42715H148.643C151.116 8.42715 153.23 8.81917 155.001 9.61088C156.765 10.4026 158.131 11.5402 159.086 13.0391C160.04 14.5379 160.521 16.3289 160.521 18.4196C160.521 20.5104 160.04 22.2475 159.086 23.7157C158.131 25.1838 156.765 26.3214 155.001 27.1285C153.238 27.9279 151.116 28.3353 148.643 28.3353H141.673C141.077 28.3353 140.78 27.6127 141.192 27.1823C141.612 26.7519 142.345 27.0516 142.345 27.6589V35.8143C142.345 36.2063 142.032 36.5138 141.65 36.5138H137.864C137.474 36.5138 137.169 36.1986 137.169 35.8143V35.8066ZM141.131 25.2069C140.726 24.7534 141.047 24.0308 141.65 24.0308H148.406C150.688 24.0308 152.414 23.5389 153.566 22.5473C154.719 21.5558 155.299 20.1799 155.299 18.412C155.299 16.6441 154.719 15.2759 153.566 14.2997C152.414 13.3235 150.688 12.8315 148.406 12.8315H141.635C141.032 12.8315 140.711 12.1167 141.116 11.6632L141.131 11.6478C141.558 11.1636 142.352 11.471 142.352 12.1167V24.738C142.352 25.3836 141.566 25.6834 141.139 25.2069H141.131ZM155.208 36.214L149.123 27.4283C148.803 26.9594 149.131 26.3214 149.696 26.3214H153.536C153.765 26.3214 153.979 26.4367 154.108 26.6212L160.223 35.4069C160.544 35.8758 160.223 36.5138 159.65 36.5138H155.78C155.551 36.5138 155.337 36.3985 155.208 36.214Z" fill="white"/>
<path d="M178.72 36.9135C176.567 36.9135 174.567 36.5522 172.72 35.8297C170.872 35.1071 169.269 34.0925 167.918 32.7781C166.559 31.4714 165.513 29.9341 164.773 28.1816C164.032 26.429 163.658 24.5228 163.658 22.4628C163.658 20.4028 164.032 18.4581 164.773 16.7056C165.513 14.953 166.567 13.4311 167.918 12.1321C169.277 10.833 170.865 9.82611 172.704 9.10358C174.536 8.38104 176.544 8.01978 178.72 8.01978C180.895 8.01978 182.865 8.37336 184.697 9.08052C186.529 9.78768 188.117 10.7946 189.46 12.0936C190.804 13.3927 191.842 14.9223 192.59 16.6902C193.331 18.4581 193.705 20.3797 193.705 22.4705C193.705 24.5612 193.331 26.4751 192.59 28.2277C191.85 29.9802 190.804 31.5098 189.46 32.8242C188.117 34.1386 186.529 35.1456 184.697 35.8527C182.865 36.5599 180.872 36.9135 178.72 36.9135ZM178.72 32.34C180.124 32.34 181.422 32.1017 182.605 31.6174C183.789 31.1332 184.819 30.4568 185.697 29.5728C186.575 28.6889 187.254 27.6435 187.75 26.4444C188.239 25.2376 188.491 23.9155 188.491 22.4705C188.491 21.0254 188.254 19.7033 187.773 18.4965C187.292 17.2897 186.613 16.2521 185.72 15.3681C184.827 14.4842 183.796 13.8 182.613 13.3235C181.43 12.8392 180.132 12.6009 178.727 12.6009C177.323 12.6009 176.01 12.8392 174.804 13.3235C173.597 13.8077 172.552 14.4918 171.674 15.3912C170.796 16.2905 170.109 17.3282 169.605 18.5196C169.101 19.711 168.849 21.0254 168.849 22.4705C168.849 23.9155 169.101 25.1992 169.605 26.406C170.109 27.6127 170.803 28.6581 171.674 29.5574C172.552 30.4568 173.59 31.1409 174.804 31.6251C176.01 32.1094 177.323 32.3477 178.727 32.3477L178.72 32.34Z" fill="white"/>
<path d="M23.3528 36.875C19.5588 36.875 16.5817 35.7912 14.4213 33.6313C12.2609 31.4714 11.1846 28.3353 11.1846 24.223V9.71847C11.1846 9.01131 11.7495 8.4425 12.4518 8.4425H15.0931C15.7877 8.4425 16.3603 9.01131 16.3603 9.71847V24.0615C16.3603 26.944 16.9786 29.0424 18.2077 30.3491C19.4443 31.6558 21.1848 32.3092 23.4368 32.3092C25.6888 32.3092 27.4293 31.6558 28.643 30.3491C29.8645 29.0424 30.4752 26.944 30.4752 24.0615V9.71847C30.4752 9.01899 31.0401 8.4425 31.7424 8.4425H34.3073C35.002 8.4425 35.5745 9.01131 35.5745 9.71847V24.223C35.5745 28.3353 34.4905 31.4714 32.3302 33.6313C30.1698 35.7912 27.1774 36.875 23.3605 36.875H23.3528Z" fill="white"/>
<path d="M40.9258 35.3146V9.60317C40.9258 8.96519 41.4449 8.4425 42.0785 8.4425H44.9412C45.5748 8.4425 46.0939 8.96519 46.0939 9.60317V35.3146C46.0939 35.9526 45.5748 36.4753 44.9412 36.4753H42.0785C41.4449 36.4753 40.9258 35.9526 40.9258 35.3146Z" fill="white"/>
<path d="M82.6176 47.9359H84.0986C85.3658 47.9359 86.0834 46.4677 85.3124 45.4531L55.0978 9.01895C54.8077 8.64231 54.3573 8.4194 53.884 8.4194H52.4031C51.1359 8.4194 50.4183 9.88753 51.1893 10.9022L81.4039 47.3363C81.6939 47.713 82.1443 47.9359 82.6176 47.9359Z" fill="white"/>
<path d="M53.7083 36.4599H52.6701C51.1433 36.4599 50.3647 34.6151 51.4258 33.5083L74.9531 8.97288C75.2814 8.63467 75.7318 8.4425 76.1974 8.4425H77.2356C78.7624 8.4425 79.541 10.2873 78.4799 11.3941L54.9602 35.9219C54.632 36.2601 54.1816 36.4522 53.7159 36.4522L53.7083 36.4599Z" fill="white"/>
<defs>
<linearGradient id="paint0_linear_179_1412" x1="55" y1="7.5" x2="84" y2="44" gradientUnits="userSpaceOnUse">
<stop stop-color="#2EAFF8"/>
<stop offset="1" stop-color="#EC3989"/>
</linearGradient>
</defs>
</svg>
